<?xml version="1.0" encoding="UTF-8"?>
<svg version="1.1" xmlns="http://www.w3.org/2000/svg" width="512" height="512">
<path d="M0 0 C1.57901913 -0.00489228 3.15803467 -0.01108365 4.73704416 -0.01845789 C9.06477155 -0.03483678 13.39231652 -0.03254372 17.72006404 -0.02708292 C22.39152369 -0.02441032 27.06293497 -0.03894852 31.734375 -0.05117798 C40.880425 -0.07222163 50.02641159 -0.07677355 59.17248293 -0.07499009 C66.60408451 -0.07368239 74.03566631 -0.077487 81.46726418 -0.08491516 C83.60796191 -0.08701434 85.74865965 -0.08911194 87.88935739 -0.09120798 C89.48754295 -0.09277327 89.48754295 -0.09277327 91.11801509 -0.09437019 C111.26217284 -0.11326689 131.40629416 -0.11222356 151.5504571 -0.10540086 C169.98916118 -0.09982085 188.42772653 -0.12067138 206.86639818 -0.15376133 C225.79552529 -0.18746824 244.72458587 -0.20267074 263.65374357 -0.1980443 C274.28269421 -0.19579722 284.91151648 -0.20107827 295.54044151 -0.22593689 C304.58531499 -0.24691081 313.62998964 -0.25058054 322.67487117 -0.2316373 C327.29126184 -0.22245683 331.90728137 -0.22140704 336.52364349 -0.24199295 C340.74710237 -0.26061907 344.96988397 -0.25629444 349.19331638 -0.23344713 C350.72343966 -0.22924022 352.25361404 -0.23353122 353.78368344 -0.24704307 C355.86017509 -0.26413582 357.93428361 -0.25056544 360.01068401 -0.2292099 C361.16487416 -0.22948228 362.31906431 -0.22975467 363.50822991 -0.23003531 C367.52977216 0.59031109 369.05908591 2.21335359 371.56941223 5.39440918 C371.56941223 6.38440918 371.56941223 7.37440918 371.56941223 8.39440918 C377.83941223 8.39440918 384.10941223 8.39440918 390.56941223 8.39440918 C391.22941223 6.41440918 391.88941223 4.43440918 392.56941223 2.39440918 C395.65860233 -0.000988 398.75931658 0.13116477 402.57209778 0.10388184 C403.78403305 0.09112213 404.99596832 0.07836243 406.24462891 0.06521606 C408.20557243 0.06187759 408.20557243 0.06187759 410.20613098 0.05847168 C411.5689101 0.05203891 412.93168785 0.04531019 414.29446411 0.03829956 C417.15168961 0.02633194 420.0087943 0.02261791 422.86604309 0.02380371 C426.50638283 0.02400623 430.14593595 -0.00322694 433.7860899 -0.03774071 C436.60275745 -0.06011727 439.41923942 -0.06403048 442.23598671 -0.06297684 C444.22387107 -0.06645011 446.21169748 -0.08805501 448.19946289 -0.1100769 C457.0842872 -0.06554583 463.68068635 1.35488625 470.88191223 6.64440918 C478.81632107 14.76333916 478.13886959 23.57040519 478.0773468 34.17150879 C478.08195803 35.89688359 478.08831244 37.62225447 478.09625578 39.34761715 C478.11294175 44.08006255 478.10470603 48.81218497 478.09231091 53.54463148 C478.08325977 58.65173491 478.09723047 63.75878284 478.10823059 68.86587524 C478.12601969 78.8672095 478.12217406 88.8684237 478.11058003 98.86976266 C478.10154753 106.99785107 478.10032091 115.12590582 478.10467529 123.2539978 C478.10528823 124.4107051 478.10590116 125.56741239 478.10653266 126.75917143 C478.10781156 129.10897931 478.10910841 131.45878719 478.11042303 133.80859506 C478.12182997 155.84421678 478.10871331 177.87977194 478.08722156 199.91538274 C478.06935049 218.82411499 478.07245457 237.73274902 478.09089661 256.64147949 C478.11230127 278.598099 478.12073133 300.55466016 478.10844755 322.51128864 C478.10717335 324.85246594 478.10591587 327.19364324 478.10467529 329.53482056 C478.10405819 330.68673305 478.10344109 331.83864554 478.10280529 333.02546448 C478.09935118 341.14405558 478.10518205 349.26260969 478.11459351 357.38119507 C478.12581036 367.27466937 478.12277997 377.16801672 478.10147053 387.06147647 C478.09095597 392.10955845 478.08684531 397.15742875 478.10006714 402.20550919 C478.1119883 406.82687969 478.10543294 411.44784232 478.08415693 416.06917584 C478.07968972 417.74066551 478.08195983 419.41218965 478.09166008 421.08365715 C478.14179309 430.44008221 478.12511444 437.75243247 471.96394348 445.38269043 C463.70455581 452.29610382 455.17975092 452.8346917 444.71400452 452.77536011 C442.80278435 452.78238007 442.80278435 452.78238007 440.85295367 452.78954184 C437.33696973 452.80200775 433.82123163 452.79590184 430.30524707 452.78658319 C426.50566658 452.77977511 422.70612737 452.79028242 418.90655518 452.79852295 C411.47247548 452.81184223 404.0384868 452.80899106 396.60440359 452.80028503 C390.56346332 452.79350381 384.52254851 452.79259365 378.48160553 452.79585648 C377.19089405 452.79654602 377.19089405 452.79654602 375.87410758 452.7972495 C374.12600304 452.79820869 372.3778985 452.79918133 370.62979397 452.80016728 C354.25069292 452.80871535 337.87164229 452.79889512 321.49254951 452.78276618 C307.43692776 452.76935396 293.38138031 452.77169965 279.32575989 452.78552246 C262.9981844 452.8015721 246.67065302 452.80790149 230.34307075 452.79868567 C228.60269913 452.79773003 226.8623275 452.79678691 225.12195587 452.79585648 C223.83753611 452.79516224 223.83753611 452.79516224 222.52716847 452.79445397 C216.4910706 452.79186294 210.4550007 452.7962373 204.41890717 452.80329514 C197.06673416 452.81170306 189.71465725 452.80944454 182.36249527 452.7934529 C178.61096585 452.78556209 174.85959675 452.78249244 171.10806847 452.79240036 C167.04420081 452.80297108 162.98073896 452.7903602 158.91688538 452.77536011 C157.72750374 452.78205227 156.53812211 452.78874444 155.3126986 452.7956394 C154.22495763 452.78781615 153.13721665 452.77999291 152.01651382 452.7719326 C151.0785469 452.77144554 150.14057997 452.77095849 149.17418981 452.77045667 C145.94210444 452.30384578 144.11312356 451.44226804 141.56941223 449.39440918 C141.23941223 447.74440918 140.90941223 446.09440918 140.56941223 444.39440918 C134.29941223 444.39440918 128.02941223 444.39440918 121.56941223 444.39440918 C121.23941223 446.04440918 120.90941223 447.69440918 120.56941223 449.39440918 C118.43260295 451.60961004 117.1037051 452.314141 114.05648518 452.7719326 C113.10582267 452.77306368 112.15516016 452.77419476 111.1756897 452.77536011 C110.0809433 452.78381958 108.9861969 452.79227905 107.85827637 452.80099487 C106.66185013 452.79492218 105.46542389 452.78884949 104.23274231 452.78259277 C102.96889709 452.78784973 101.70505188 452.79310669 100.40290833 452.79852295 C96.9376876 452.8121989 93.47273488 452.80689508 90.00750947 452.79738569 C86.37487209 452.78978224 82.74225743 452.79683737 79.10961914 452.80154419 C73.00397128 452.80700324 66.89843224 452.79980992 60.7928009 452.78552246 C53.75028175 452.76923212 46.70802366 452.77445735 39.66551095 452.79100168 C33.6092662 452.80465609 27.55309966 452.80651586 21.49684447 452.79868567 C17.88431542 452.79402609 14.27190862 452.79333598 10.65938759 452.80329514 C6.62378872 452.81364276 2.58863253 452.79926317 -1.44694519 452.78259277 C-2.63325027 452.78866547 -3.81955536 452.79473816 -5.04180908 452.80099487 C-14.3229628 452.7301882 -21.59814548 451.43193495 -28.82511902 445.38269043 C-34.092093 438.8598443 -35.01391026 432.80043871 -34.94525146 424.58868408 C-34.95566976 422.99007896 -34.95566976 422.99007896 -34.96629852 421.35917878 C-34.98454601 417.80006927 -34.97431014 414.24162798 -34.96403503 410.68249512 C-34.97109438 408.12625633 -34.97983946 405.57002172 -34.99014282 403.01379395 C-35.01030418 396.79975085 -35.01166681 390.58595343 -35.00351728 384.37189028 C-34.99721062 379.32251672 -34.99836038 374.27319655 -35.00478935 369.22382355 C-35.00569101 368.50446844 -35.00659266 367.78511332 -35.00752164 367.04395957 C-35.00937287 365.58253476 -35.01123543 364.12110995 -35.0131092 362.65968516 C-35.02967237 348.96884779 -35.02097949 335.27811361 -35.00412362 321.58728245 C-34.98941194 309.05827493 -35.0040782 296.52950691 -35.03289378 284.00053021 C-35.0622707 271.13165024 -35.07326609 258.26288087 -35.06371158 245.39396882 C-35.06268903 243.93922315 -35.06169442 242.48447746 -35.06072807 241.02973175 C-35.06025168 240.31398583 -35.05977529 239.59823991 -35.05928447 238.86080472 C-35.05711894 233.81507628 -35.06693112 228.76945248 -35.0814991 223.72374725 C-35.10082028 216.93728329 -35.09397204 210.15133712 -35.0692997 203.36486816 C-35.06427347 200.87030513 -35.06782812 198.37570835 -35.08044815 195.88117218 C-35.09627794 192.48432694 -35.08152164 189.08897321 -35.05877686 185.69219971 C-35.07061258 184.69766147 -35.08244831 183.70312324 -35.0946427 182.67844748 C-35.00364837 176.02190941 -35.00364837 176.02190941 -32.01632595 172.75079727 C-29.43058777 171.39440918 -29.43058777 171.39440918 -27.43058777 171.39440918 C-27.43058777 165.12440918 -27.43058777 158.85440918 -27.43058777 152.39440918 C-29.08058777 152.06440918 -30.73058777 151.73440918 -32.43058777 151.39440918 C-34.65343675 148.06013571 -34.68433533 147.00285301 -34.69801331 143.11421204 C-34.70654327 142.01939514 -34.71507324 140.92457825 -34.72386169 139.79658508 C-34.72295532 138.59499252 -34.72204895 137.39339996 -34.72111511 136.15539551 C-34.72783234 134.89009003 -34.73454956 133.62478455 -34.74147034 132.32113647 C-34.7591523 128.84772796 -34.7638268 125.37441796 -34.76510191 121.90096879 C-34.76652352 119.72911635 -34.77079342 117.55728895 -34.77609634 115.38544273 C-34.7946081 107.80304754 -34.80276605 100.2207227 -34.80119324 92.63830566 C-34.79999345 85.58041159 -34.82106056 78.52282414 -34.85268056 71.4650076 C-34.8788824 65.39946492 -34.88955881 59.33402207 -34.88828242 53.26842326 C-34.88777367 49.6485792 -34.89340744 46.02900723 -34.91463852 42.40921974 C-34.93770379 38.36606757 -34.92847626 34.32359557 -34.91642761 30.28039551 C-34.92766663 29.0889241 -34.93890564 27.8974527 -34.95048523 26.6698761 C-34.89166519 18.89461528 -33.8614108 13.55223995 -28.78996277 7.40612793 C-27.99332214 6.75063965 -27.99332214 6.75063965 -27.18058777 6.08190918 C-26.65980652 5.63202637 -26.13902527 5.18214355 -25.60246277 4.71862793 C-17.40334518 -0.28047434 -9.29008472 -0.03560006 0 0 Z " fill="#F7F6F7" transform="translate(34.43058776855469,29.6055908203125)"/>
<path d="M0 0 C1.57901913 -0.00489228 3.15803467 -0.01108365 4.73704416 -0.01845789 C9.06477155 -0.03483678 13.39231652 -0.03254372 17.72006404 -0.02708292 C22.39152369 -0.02441032 27.06293497 -0.03894852 31.734375 -0.05117798 C40.880425 -0.07222163 50.02641159 -0.07677355 59.17248293 -0.07499009 C66.60408451 -0.07368239 74.03566631 -0.077487 81.46726418 -0.08491516 C83.60796191 -0.08701434 85.74865965 -0.08911194 87.88935739 -0.09120798 C89.48754295 -0.09277327 89.48754295 -0.09277327 91.11801509 -0.09437019 C111.26217284 -0.11326689 131.40629416 -0.11222356 151.5504571 -0.10540086 C169.98916118 -0.09982085 188.42772653 -0.12067138 206.86639818 -0.15376133 C225.79552529 -0.18746824 244.72458587 -0.20267074 263.65374357 -0.1980443 C274.28269421 -0.19579722 284.91151648 -0.20107827 295.54044151 -0.22593689 C304.58531499 -0.24691081 313.62998964 -0.25058054 322.67487117 -0.2316373 C327.29126184 -0.22245683 331.90728137 -0.22140704 336.52364349 -0.24199295 C340.74710237 -0.26061907 344.96988397 -0.25629444 349.19331638 -0.23344713 C350.72343966 -0.22924022 352.25361404 -0.23353122 353.78368344 -0.24704307 C355.86017509 -0.26413582 357.93428361 -0.25056544 360.01068401 -0.2292099 C361.16487416 -0.22948228 362.31906431 -0.22975467 363.50822991 -0.23003531 C367.52977216 0.59031109 369.05908591 2.21335359 371.56941223 5.39440918 C371.56941223 6.38440918 371.56941223 7.37440918 371.56941223 8.39440918 C377.83941223 8.39440918 384.10941223 8.39440918 390.56941223 8.39440918 C391.22941223 6.41440918 391.88941223 4.43440918 392.56941223 2.39440918 C395.65860233 -0.000988 398.75931658 0.13116477 402.57209778 0.10388184 C403.78403305 0.09112213 404.99596832 0.07836243 406.24462891 0.06521606 C408.20557243 0.06187759 408.20557243 0.06187759 410.20613098 0.05847168 C411.5689101 0.05203891 412.93168785 0.04531019 414.29446411 0.03829956 C417.15168961 0.02633194 420.0087943 0.02261791 422.86604309 0.02380371 C426.50638283 0.02400623 430.14593595 -0.00322694 433.7860899 -0.03774071 C436.60275745 -0.06011727 439.41923942 -0.06403048 442.23598671 -0.06297684 C444.22387107 -0.06645011 446.21169748 -0.08805501 448.19946289 -0.1100769 C457.0842872 -0.06554583 463.68068635 1.35488625 470.88191223 6.64440918 C478.81632107 14.76333916 478.13886959 23.57040519 478.0773468 34.17150879 C478.08195803 35.89688359 478.08831244 37.62225447 478.09625578 39.34761715 C478.11294175 44.08006255 478.10470603 48.81218497 478.09231091 53.54463148 C478.08325977 58.65173491 478.09723047 63.75878284 478.10823059 68.86587524 C478.12601969 78.8672095 478.12217406 88.8684237 478.11058003 98.86976266 C478.10154753 106.99785107 478.10032091 115.12590582 478.10467529 123.2539978 C478.10528823 124.4107051 478.10590116 125.56741239 478.10653266 126.75917143 C478.10781156 129.10897931 478.10910841 131.45878719 478.11042303 133.80859506 C478.12182997 155.84421678 478.10871331 177.87977194 478.08722156 199.91538274 C478.06935049 218.82411499 478.07245457 237.73274902 478.09089661 256.64147949 C478.11230127 278.598099 478.12073133 300.55466016 478.10844755 322.51128864 C478.10717335 324.85246594 478.10591587 327.19364324 478.10467529 329.53482056 C478.10405819 330.68673305 478.10344109 331.83864554 478.10280529 333.02546448 C478.09935118 341.14405558 478.10518205 349.26260969 478.11459351 357.38119507 C478.12581036 367.27466937 478.12277997 377.16801672 478.10147053 387.06147647 C478.09095597 392.10955845 478.08684531 397.15742875 478.10006714 402.20550919 C478.1119883 406.82687969 478.10543294 411.44784232 478.08415693 416.06917584 C478.07968972 417.74066551 478.08195983 419.41218965 478.09166008 421.08365715 C478.14179309 430.44008221 478.12511444 437.75243247 471.96394348 445.38269043 C463.70455581 452.29610382 455.17975092 452.8346917 444.71400452 452.77536011 C442.80278435 452.78238007 442.80278435 452.78238007 440.85295367 452.78954184 C437.33696973 452.80200775 433.82123163 452.79590184 430.30524707 452.78658319 C426.50566658 452.77977511 422.70612737 452.79028242 418.90655518 452.79852295 C411.47247548 452.81184223 404.0384868 452.80899106 396.60440359 452.80028503 C390.56346332 452.79350381 384.52254851 452.79259365 378.48160553 452.79585648 C377.19089405 452.79654602 377.19089405 452.79654602 375.87410758 452.7972495 C374.12600304 452.79820869 372.3778985 452.79918133 370.62979397 452.80016728 C354.25069292 452.80871535 337.87164229 452.79889512 321.49254951 452.78276618 C307.43692776 452.76935396 293.38138031 452.77169965 279.32575989 452.78552246 C262.9981844 452.8015721 246.67065302 452.80790149 230.34307075 452.79868567 C228.60269913 452.79773003 226.8623275 452.79678691 225.12195587 452.79585648 C223.83753611 452.79516224 223.83753611 452.79516224 222.52716847 452.79445397 C216.4910706 452.79186294 210.4550007 452.7962373 204.41890717 452.80329514 C197.06673416 452.81170306 189.71465725 452.80944454 182.36249527 452.7934529 C178.61096585 452.78556209 174.85959675 452.78249244 171.10806847 452.79240036 C167.04420081 452.80297108 162.98073896 452.7903602 158.91688538 452.77536011 C157.72750374 452.78205227 156.53812211 452.78874444 155.3126986 452.7956394 C154.22495763 452.78781615 153.13721665 452.77999291 152.01651382 452.7719326 C151.0785469 452.77144554 150.14057997 452.77095849 149.17418981 452.77045667 C146.01921037 452.31497743 144.12872343 451.26915942 141.56941223 449.39440918 C140.39588496 446.42147343 140.44859543 444.85570971 141.25691223 441.76940918 C142.7602822 439.04902542 143.92757666 438.00769675 146.56941223 436.39440918 C149.05689532 436.01885366 149.05689532 436.01885366 151.91022587 436.01802826 C152.99967599 436.01042181 154.08912611 436.00281537 155.21158987 435.99497843 C156.40797707 436.00187236 157.60436426 436.0087663 158.83700562 436.01586914 C160.74393429 436.00907395 160.74393429 436.00907395 162.68938679 436.00214148 C166.22052688 435.98990978 169.75142748 435.99630484 173.28256738 436.00564647 C177.08969722 436.0124334 180.89678246 436.00191523 184.7039032 435.99336243 C191.30147716 435.98078689 197.89898559 435.97882596 204.49656868 435.98371887 C214.03886519 435.99051881 223.58106262 435.97802427 233.12334143 435.96021169 C248.60886004 435.93155179 264.09436797 435.91404577 279.57991028 435.90563965 C280.97045866 435.90487888 280.97045866 435.90487888 282.38909893 435.90410274 C289.91187766 435.90007036 297.43465661 435.89657645 304.95743561 435.89310551 C311.53471897 435.89004811 318.11200218 435.88677596 324.68928528 435.88317871 C325.6154938 435.8826761 326.54170232 435.88217348 327.49597777 435.88165563 C342.9241987 435.87292011 358.35238283 435.85250184 373.78057903 435.82369661 C383.30233579 435.80648975 392.82398863 435.79994379 402.34575891 435.80700266 C408.86578824 435.81117284 415.38575192 435.80486193 421.90576596 435.79020393 C425.67119038 435.78212278 429.43645215 435.77907356 433.20187569 435.78902626 C437.27765386 435.79970976 441.35303649 435.78749074 445.42880249 435.77294922 C446.62742041 435.77984315 447.82603832 435.78673709 449.060978 435.79383993 C450.14782037 435.78623349 451.23466274 435.77862704 452.35443974 435.7707901 C453.76659483 435.77038152 453.76659483 435.77038152 455.20727831 435.76996469 C458.0127679 435.32392009 458.85679387 434.61242382 460.56941223 432.39440918 C461.90828153 429.71667058 461.70059314 427.66674637 461.70807743 424.66661644 C461.7135528 423.43957623 461.71902817 422.21253601 461.72466946 420.94831276 C461.72574565 419.57506949 461.72672941 418.20182615 461.72763062 416.82858276 C461.73218497 415.38256187 461.73717605 413.9365423 461.74256897 412.49052429 C461.75619259 408.49475173 461.76356366 404.49898763 461.76998372 400.50319788 C461.77809838 396.13644295 461.79197561 391.76970575 461.80513668 387.40296364 C461.82984197 378.91734334 461.84941579 370.43171883 461.86722192 361.94608156 C461.88802769 352.13563144 461.91517346 342.32520569 461.94233704 332.51477051 C462.01094362 306.59966383 462.07089441 280.68453483 462.13191223 254.76940918 C462.27628723 196.89565918 462.42066223 139.02190918 462.56941223 79.39440918 C303.50941223 79.39440918 144.44941223 79.39440918 -19.43058777 79.39440918 C-19.43058777 101.50440918 -19.43058777 123.61440918 -19.43058777 146.39440918 C-21.43058777 150.39440918 -21.43058777 150.39440918 -23.11808777 151.70690918 C-26.49740251 152.71157032 -29.03825544 152.21108178 -32.43058777 151.39440918 C-34.65343675 148.06013571 -34.68433533 147.00285301 -34.69801331 143.11421204 C-34.70654327 142.01939514 -34.71507324 140.92457825 -34.72386169 139.79658508 C-34.72295532 138.59499252 -34.72204895 137.39339996 -34.72111511 136.15539551 C-34.72783234 134.89009003 -34.73454956 133.62478455 -34.74147034 132.32113647 C-34.7591523 128.84772796 -34.7638268 125.37441796 -34.76510191 121.90096879 C-34.76652352 119.72911635 -34.77079342 117.55728895 -34.77609634 115.38544273 C-34.7946081 107.80304754 -34.80276605 100.2207227 -34.80119324 92.63830566 C-34.79999345 85.58041159 -34.82106056 78.52282414 -34.85268056 71.4650076 C-34.8788824 65.39946492 -34.88955881 59.33402207 -34.88828242 53.26842326 C-34.88777367 49.6485792 -34.89340744 46.02900723 -34.91463852 42.40921974 C-34.93770379 38.36606757 -34.92847626 34.32359557 -34.91642761 30.28039551 C-34.92766663 29.0889241 -34.93890564 27.8974527 -34.95048523 26.6698761 C-34.89166519 18.89461528 -33.8614108 13.55223995 -28.78996277 7.40612793 C-27.99332214 6.75063965 -27.99332214 6.75063965 -27.18058777 6.08190918 C-26.65980652 5.63202637 -26.13902527 5.18214355 -25.60246277 4.71862793 C-17.40334518 -0.28047434 -9.29008472 -0.03560006 0 0 Z " fill="#020303" transform="translate(34.43058776855469,29.6055908203125)"/>
<path d="M0 0 C0.97751724 -0.00524185 1.95503448 -0.0104837 2.96217346 -0.0158844 C5.02563529 -0.02229621 7.08913372 -0.02097851 9.15258789 -0.01245117 C12.30226017 -0.00394446 15.45011627 -0.03270966 18.59960938 -0.06445312 C20.60807238 -0.06606542 22.61653857 -0.06548707 24.625 -0.0625 C26.03150063 -0.07935097 26.03150063 -0.07935097 27.46641541 -0.09654236 C33.08999266 -0.03688841 36.52744802 0.52432544 40.87890625 4.43359375 C45.88782246 10.02052655 45.4232031 15.4270641 45.33300781 22.68115234 C45.33359192 23.91097839 45.33417603 25.14080444 45.33477783 26.40789795 C45.33247407 29.76732884 45.31246201 33.12576764 45.284482 36.48502302 C45.2594191 40.00037156 45.25712252 43.51573435 45.25238037 47.03115845 C45.23996486 53.68220401 45.20716285 60.33298551 45.16698241 66.98391497 C45.12222008 74.55823781 45.10026649 82.13257348 45.08020067 89.70699573 C45.03842871 105.28268115 44.96810474 120.85810335 44.87890625 136.43359375 C46.10867188 136.39878906 47.3384375 136.36398437 48.60546875 136.328125 C50.23826752 136.2999733 51.87108115 136.27267462 53.50390625 136.24609375 C54.31214844 136.22095703 55.12039063 136.19582031 55.953125 136.16992188 C61.03504437 136.10794725 64.48582517 136.58659531 68.87890625 139.43359375 C72.61988512 143.80345919 73.38352999 146.93771864 73.375 152.625 C73.37645523 153.29272934 73.37791046 153.96045868 73.37940979 154.64842224 C73.37775942 156.0510599 73.36629515 157.45371731 73.34545898 158.85620117 C73.31643313 160.99411371 73.32487933 163.12955189 73.33789062 165.26757812 C73.30322753 172.87715688 73.22423986 177.66426552 68.0045166 183.54554749 C63.19612117 186.45009156 58.59968697 185.99084057 53.08374023 185.95117188 C51.29274902 185.96168579 51.29274902 185.96168579 49.46557617 185.97241211 C46.1989589 185.98698346 42.93299176 185.98359335 39.66638446 185.97089577 C36.24494761 185.96075236 32.82355346 185.97016493 29.40211487 185.97644043 C23.65805285 185.983712 17.91419675 185.97414119 12.17016602 185.95507812 C5.53132246 185.9332997 -1.10702989 185.94036932 -7.74586159 185.96238375 C-13.44962979 185.98053957 -19.1532502 185.98309558 -24.85703796 185.97262907 C-28.26207433 185.96639637 -31.66687983 185.96555226 -35.07190132 185.97877502 C-38.86671517 185.98890946 -42.66057933 185.97348145 -46.45532227 185.95117188 C-47.58322678 185.9592688 -48.71113129 185.96736572 -49.87321472 185.97570801 C-50.90642853 185.96442871 -51.93964233 185.95314941 -53.00416565 185.94152832 C-53.90102868 185.94002022 -54.79789171 185.93851212 -55.72193241 185.93695831 C-58.91473347 185.26708135 -60.13927147 183.97635166 -62.12109375 181.43359375 C-62.12109375 180.44359375 -62.12109375 179.45359375 -62.12109375 178.43359375 C-68.72109375 178.43359375 -75.32109375 178.43359375 -82.12109375 178.43359375 C-82.78109375 180.08359375 -83.44109375 181.73359375 -84.12109375 183.43359375 C-86.64554481 185.95804481 -87.52928352 185.6987044 -91.02636719 185.73999023 C-92.55871002 185.76397133 -92.55871002 185.76397133 -94.12200928 185.78843689 C-95.2303009 185.79379959 -96.33859253 185.79916229 -97.48046875 185.8046875 C-99.18617035 185.81823021 -99.18617035 185.81823021 -100.92633057 185.83204651 C-103.33725338 185.84657798 -105.7482159 185.8554429 -108.15917969 185.85913086 C-111.84247808 185.87100153 -115.52408801 185.92014035 -119.20703125 185.97070312 C-121.5481689 185.98016986 -123.88931685 185.98740369 -126.23046875 185.9921875 C-127.8807608 186.02148598 -127.8807608 186.02148598 -129.56439209 186.05137634 C-138.11434634 186.00112902 -138.11434634 186.00112902 -141.80175781 183.02368164 C-146.67523181 177.58129367 -145.41998865 170.56664241 -145.47119141 163.60375977 C-145.48774053 161.95387659 -145.51501731 160.3040648 -145.55322266 158.65454102 C-145.60810524 156.27192117 -145.62988085 153.89098003 -145.64453125 151.5078125 C-145.66720062 150.77431076 -145.68987 150.04080902 -145.71322632 149.28507996 C-145.69706081 145.34929158 -145.29183198 143.64323954 -142.77587891 140.55395508 C-139.19392134 137.69306658 -137.24357814 136.17691611 -132.671875 136.23828125 C-131.40053711 136.24794922 -131.40053711 136.24794922 -130.10351562 136.2578125 C-128.7819043 136.28294922 -128.7819043 136.28294922 -127.43359375 136.30859375 C-126.54091797 136.31761719 -125.64824219 136.32664062 -124.72851562 136.3359375 C-122.52577061 136.35949627 -120.32356787 136.39239046 -118.12109375 136.43359375 C-118.1299762 135.49700424 -118.13885864 134.56041473 -118.14801025 133.59544373 C-118.22922504 124.75329023 -118.28912087 115.91121277 -118.32834244 107.06877041 C-118.34918487 102.52314603 -118.37744104 97.97782365 -118.42285156 93.43237305 C-118.46642916 89.04274098 -118.490256 84.65339872 -118.50060272 80.26356697 C-118.50797278 78.59186303 -118.52236487 76.92017429 -118.54401398 75.24859428 C-118.57320743 72.90033013 -118.57704327 70.55325147 -118.57519531 68.20483398 C-118.58957642 67.51934479 -118.60395752 66.83385559 -118.61877441 66.12759399 C-118.57328543 60.75776934 -117.04156959 57.7788421 -114.12109375 53.43359375 C-109.79697838 49.58966399 -105.15096353 50.04308587 -99.6640625 50.140625 C-98.7610994 50.14486984 -97.85813629 50.14911469 -96.92781067 50.15348816 C-94.05443025 50.17023064 -91.18176084 50.20787459 -88.30859375 50.24609375 C-86.35612995 50.26114632 -84.40365511 50.27483372 -82.45117188 50.28710938 C-77.67420678 50.32011967 -72.89777066 50.3718714 -68.12109375 50.43359375 C-68.17910156 49.27601563 -68.23710937 48.1184375 -68.296875 46.92578125 C-68.3437964 45.38675927 -68.38929401 43.84769342 -68.43359375 42.30859375 C-68.47548828 41.54804688 -68.51738281 40.7875 -68.56054688 40.00390625 C-68.64834495 35.93007535 -68.43570069 33.26005893 -65.8515625 30.00390625 C-62.33235102 26.6911149 -59.84514772 25.17584657 -54.99511719 25.20654297 C-53.79432526 25.20676956 -53.79432526 25.20676956 -52.5692749 25.20700073 C-51.71496887 25.2173233 -50.86066284 25.22764587 -49.98046875 25.23828125 C-49.09828674 25.24111115 -48.21610474 25.24394104 -47.30718994 25.24685669 C-44.49501876 25.25803414 -41.68316835 25.28313424 -38.87109375 25.30859375 C-36.96224419 25.3186267 -35.05338963 25.327752 -33.14453125 25.3359375 C-28.46992886 25.35796551 -23.79556566 25.39247864 -19.12109375 25.43359375 C-19.1675 24.34820312 -19.21390625 23.2628125 -19.26171875 22.14453125 C-19.29925862 20.69924644 -19.33565639 19.25393164 -19.37109375 17.80859375 C-19.40460938 17.09574219 -19.438125 16.38289062 -19.47265625 15.6484375 C-19.56819604 10.44151883 -18.63608701 7.51050771 -15.12109375 3.43359375 C-10.63386974 -0.48244436 -5.66042858 -0.01768344 0 0 Z " fill="#030302" transform="translate(388.12109375,128.56640625)"/>
<path d="M0 0 C6.6 0 13.2 0 20 0 C20.66 1.65 21.32 3.3 22 5 C25.46648394 7.31098929 26.77490111 7.24626374 30.86083984 7.23950195 C32.06574066 7.24323318 33.27064148 7.24696442 34.51205444 7.25080872 C36.46675156 7.24460762 36.46675156 7.24460762 38.4609375 7.23828125 C39.81231459 7.24430077 41.16368547 7.25190732 42.51504517 7.2610321 C48.25191789 7.29813168 53.98859659 7.31670845 59.72558594 7.30541992 C63.23715642 7.29955807 66.74792082 7.3178803 70.25932693 7.35130882 C72.24287714 7.36309959 74.22652846 7.34793602 76.21005249 7.33235168 C77.42125763 7.3455394 78.63246277 7.35872711 79.88037109 7.37231445 C80.94387787 7.37294388 82.00738464 7.3735733 83.1031189 7.3742218 C86 8 86 8 91 13 C91 27.19 91 41.38 91 56 C-68.06 56 -227.12 56 -391 56 C-391 13 -391 13 -386 8 C-382.94818974 7.37834883 -382.94818974 7.37834883 -379.46412659 7.38311005 C-378.81827335 7.37715043 -378.17242011 7.37119082 -377.50699556 7.36505061 C-375.33939231 7.35113555 -373.17362332 7.372892 -371.00610352 7.39440918 C-369.43792236 7.39167869 -367.86974375 7.38673941 -366.30157566 7.37977934 C-361.98970562 7.366957 -357.67843715 7.38522817 -353.36663103 7.40842414 C-348.7176276 7.42794875 -344.06867501 7.41857795 -339.41964722 7.41249084 C-331.36293613 7.40569189 -323.30640586 7.41661396 -315.24972534 7.4389801 C-303.5956477 7.47087057 -291.94173938 7.47054102 -280.28762972 7.46133965 C-261.37304735 7.44681832 -242.45852218 7.45092027 -223.54394531 7.47021484 C-221.84550348 7.47193751 -221.84550348 7.47193751 -220.1127497 7.47369498 C-210.92503137 7.48315281 -201.73731409 7.49350946 -192.54959679 7.50390339 C-184.5184165 7.51295084 -176.48723594 7.52163942 -168.45605469 7.52978516 C-166.75967816 7.53151561 -166.75967816 7.53151561 -165.0290314 7.53328103 C-146.18587654 7.55189617 -127.34277122 7.55100115 -108.49961376 7.53612375 C-96.87182196 7.5278953 -85.24429861 7.53743965 -73.61654735 7.56971943 C-65.65280553 7.59071897 -57.68918256 7.59419829 -49.72542024 7.58377111 C-45.12726408 7.57839099 -40.52949367 7.58137539 -35.93139267 7.60611153 C-31.72448992 7.62861652 -27.51823786 7.62829762 -23.31132209 7.60962588 C-21.78715659 7.60697203 -20.2629482 7.61284702 -18.73885548 7.62797683 C-16.6703928 7.64731098 -14.60428643 7.63597624 -12.53587341 7.61688995 C-10.81126215 7.61924676 -10.81126215 7.61924676 -9.05181026 7.62165117 C-5.05879511 6.80827736 -3.5687427 5.08444091 -1 2 C-0.67 1.34 -0.34 0.68 0 0 Z " fill="#89BAD4" transform="translate(406,38)"/>
<path d="M0 0 C1.16184814 -0.02803711 1.16184814 -0.02803711 2.34716797 -0.05664062 C5.56680233 -0.01980432 7.91233192 0.15920438 10.64404297 1.93188477 C13.36760395 5.8318491 13.02942715 9.46833571 13.00390625 14.12109375 C13.01010483 15.05800552 13.01630341 15.9949173 13.02268982 16.96022034 C13.02978678 18.93969688 13.02661612 20.91923312 13.01391602 22.89868164 C13.00006269 25.92380977 13.03410706 28.94583686 13.07226562 31.97070312 C13.07321697 33.89583409 13.07135718 35.82096892 13.06640625 37.74609375 C13.07966446 38.64831161 13.09292267 39.55052948 13.10658264 40.48008728 C13.03997067 44.98499967 12.90188667 46.90150803 10.05932617 50.56494141 C7.20710285 52.67004636 5.6756641 53.14681966 2.1875 53.4375 C-4.64522382 54.44122897 -9.90284398 57.07680637 -14.1953125 62.6015625 C-18.66792308 69.62995056 -19.37508305 75.1190562 -18.5625 83.5 C-16.39199319 90.95477807 -12.2607902 95.70651287 -5.5625 99.5 C1.41151795 102.69642489 8.23609306 102.14093102 15.265625 99.53515625 C21.17281801 96.71967757 25.04073483 92.57347235 27.7421875 86.6484375 C28.71675198 83.63714277 28.87514219 80.69311388 29.09765625 77.55078125 C29.61765968 74.4128295 31.20140354 72.66833596 33.4375 70.5 C36.83092815 68.80328592 40.69172512 69.31509844 44.42578125 69.296875 C45.32113083 69.29117493 46.21648041 69.28547485 47.13896179 69.27960205 C49.03623267 69.2701461 50.93352001 69.26361571 52.83081055 69.25976562 C55.7279953 69.25007361 58.62446662 69.21906169 61.52148438 69.1875 C63.36457912 69.18096857 65.20767894 69.17571865 67.05078125 69.171875 C67.91552567 69.1595282 68.78027008 69.1471814 69.67121887 69.13446045 C74.40966677 69.15193003 77.60392745 69.38690982 81.4375 72.5 C85.35154684 80.32809369 81.7739203 92.62079539 79.4375 100.5 C75.91789918 110.57037809 71.17750285 119.19021016 64.4375 127.5 C63.261875 129.0778125 63.261875 129.0778125 62.0625 130.6875 C49.77577787 143.85184514 31.99275452 153.34991567 13.82885742 154.69287109 C0.08846326 155.09023592 -11.80850088 154.98668067 -24.5625 149.5 C-26.18865234 148.81357422 -26.18865234 148.81357422 -27.84765625 148.11328125 C-34.9122459 144.85338843 -40.78153296 140.67878298 -46.5625 135.5 C-47.8309375 134.37271484 -47.8309375 134.37271484 -49.125 133.22265625 C-62.50094043 120.64193179 -72.07458928 101.89492834 -72.8984375 83.3359375 C-73.28942272 59.9490718 -66.33163524 39.94719191 -50.5625 22.5 C-37.25796696 9.17651463 -18.91198889 0.31778497 0 0 Z " fill="#030303" transform="translate(125.5625,159.5)"/>
<path d="M0 0 C159.06 0 318.12 0 482 0 C482.0928125 86.7178125 482.0928125 86.7178125 482.1875 175.1875 C482.21481201 193.46664795 482.24212402 211.7457959 482.27026367 230.57885742 C482.28381348 252.83654785 482.28381348 252.83654785 482.28633118 263.24409485 C482.28913512 270.53973777 482.30016633 277.8353122 482.31672668 285.13093567 C482.33578409 293.53901699 482.3445169 301.94703236 482.34033485 310.35513546 C482.33852272 314.65889622 482.34145326 318.96250945 482.35764539 323.26624334 C482.37218807 327.15508579 482.37300714 331.04367566 482.36270332 334.93252945 C482.3614271 336.34106652 482.3652671 337.74961911 482.37464774 339.15812552 C482.38665544 341.07306817 482.37841939 342.98810594 482.36914349 344.90306377 C482.37085223 346.4995979 482.37085223 346.4995979 482.37259549 348.12838525 C481.94310166 351.43851873 480.96486425 353.32432733 479 356 C476.59940183 357.20029908 475.10639351 357.11459743 472.4296875 357.09765625 C471.08583984 357.09282227 471.08583984 357.09282227 469.71484375 357.08789062 C468.77769531 357.07951172 467.84054687 357.07113281 466.875 357.0625 C465.93011719 357.05798828 464.98523438 357.05347656 464.01171875 357.04882812 C461.67441613 357.03702357 459.33723939 357.02055759 457 357 C457.16214003 356.30074931 457.32428006 355.60149862 457.49133343 354.88105851 C458.03053931 351.8270271 458.13092148 349.00387222 458.1386652 345.90306377 C458.14414057 344.67005095 458.14961594 343.43703812 458.15525723 342.16666126 C458.15633321 340.80224425 458.15731701 339.43782717 458.15821838 338.07341003 C458.16277677 336.62479516 458.16776846 335.1761816 458.17315674 333.72756958 C458.1867343 329.73857276 458.1941382 325.74958438 458.20057149 321.76057051 C458.20870641 317.39599774 458.22257649 313.03144254 458.23572445 308.66688251 C458.26039452 300.1917635 458.27998523 291.7166403 458.29780969 283.24150442 C458.3186426 273.43983923 458.34577899 263.63819819 458.3729248 253.83654785 C458.44148811 227.95354557 458.50146671 202.07052113 458.5625 176.1875 C458.706875 118.375625 458.85125 60.56375 459 1 C307.53 1 156.06 1 0 1 C0 0.67 0 0.34 0 0 Z " fill="#EBE9EB" transform="translate(15,109)"/>
<path d="M0 0 C4.50503185 3.30626801 8.5369245 7.81736909 9.8203125 13.3359375 C10.34921972 21.95569569 10.34921972 21.95569569 8.96166992 25.57666016 C8.51980034 28.60599452 8.51980034 28.60599452 11.07080078 31.48974609 C12.15902079 32.67181861 13.2671906 33.8357178 14.390625 34.984375 C14.98269745 35.60116119 15.5747699 36.21794739 16.18478394 36.85342407 C17.44617495 38.15396989 18.71607109 39.446312 19.99365234 40.73095703 C21.92657835 42.6919315 23.79979851 44.69953335 25.67578125 46.71484375 C32.01626348 53.57508175 32.01626348 53.57508175 40.40527344 56.92675781 C43.76840741 56.70715856 43.76840741 56.70715856 46.81591797 55.93603516 C49.8203125 55.3359375 49.8203125 55.3359375 53.26806641 56.12109375 C57.11040933 56.35348288 57.45055673 56.2755614 60.20117188 53.95849609 C61.37675456 52.82207007 62.53008525 51.66231998 63.6640625 50.484375 C64.58499695 49.56780624 64.58499695 49.56780624 65.52453613 48.63272095 C66.81480286 47.33914025 68.09520725 46.03565695 69.36621094 44.72314453 C71.31746039 42.71387442 73.30346284 40.74469503 75.296875 38.77734375 C76.54651124 37.51523517 77.79398519 36.25098121 79.0390625 34.984375 C79.63473022 34.39457855 80.23039795 33.8047821 80.84411621 33.19711304 C82.6922112 31.3317114 82.6922112 31.3317114 84.8203125 28.3359375 C84.84713252 25.60008135 84.84713252 25.60008135 83.8203125 23.3359375 C83.13722347 16.4714527 83.67563555 10.99992418 87.8203125 5.3359375 C92.98732572 -0.29398005 98.04310795 -2.66521434 105.6953125 -3.0390625 C111.74325615 -2.88468556 116.15438023 -1.16411454 120.578125 2.984375 C125.5455085 8.47969297 127.37278238 13.20907369 127.1953125 20.640625 C126.42887582 26.14938866 124.11071851 31.1081394 120.10546875 35.00390625 C118.39669347 36.27894426 116.70043369 37.33466365 114.8203125 38.3359375 C114.0365625 38.7690625 113.2528125 39.2021875 112.4453125 39.6484375 C107.9875069 40.81595801 102.94240595 41.1449406 98.59106445 39.48608398 C95.56317818 39.03700955 95.56317818 39.03700955 92.68237305 41.52294922 C91.50637132 42.58471537 90.34892401 43.66725878 89.20703125 44.765625 C88.28540947 45.63950363 88.28540947 45.63950363 87.34516907 46.53103638 C86.04857638 47.77530558 84.76043806 49.02843541 83.48022461 50.28955078 C81.5344697 52.18496991 79.53661163 54.0100601 77.52929688 55.83984375 C70.17077978 62.67335585 70.17077978 62.67335585 67.05078125 71.890625 C66.99242099 74.84930808 67.22447779 77.70062111 67.57104492 80.63623047 C67.89290884 85.41343492 66.784922 87.97024923 63.77734375 91.59765625 C57.65356534 97.03694047 51.45655443 99.11662898 43.296875 98.69140625 C36.04625917 97.65070272 32.07639544 93.09362414 27.6340332 87.66357422 C25.71448842 84.14178187 25.67422722 82.4368175 26.16731262 78.53268433 C26.86634238 72.78173152 26.79230578 68.11302908 23.29150391 63.31542969 C20.46200992 59.98669409 17.35860504 56.97680889 14.13208008 54.03564453 C12.11161083 52.19158699 10.16152298 50.29065662 8.21289062 48.37109375 C6.95666922 47.16556667 5.6970188 45.96360033 4.43359375 44.765625 C3.84693436 44.20132782 3.26027496 43.63703064 2.65583801 43.05563354 C0.79781751 41.31370782 0.79781751 41.31370782 -2.1796875 39.3359375 C-4.91504182 39.34572734 -4.91504182 39.34572734 -7.1796875 40.3359375 C-8.67772945 40.42315227 -10.17911821 40.46622119 -11.6796875 40.4609375 C-12.411875 40.46351563 -13.1440625 40.46609375 -13.8984375 40.46875 C-16.1796875 40.3359375 -16.1796875 40.3359375 -18.40893555 39.48828125 C-21.43677797 39.03649486 -21.43677797 39.03649486 -24.31762695 41.52294922 C-25.49362868 42.58471537 -26.65107599 43.66725878 -27.79296875 44.765625 C-28.40738327 45.34821075 -29.02179779 45.93079651 -29.65483093 46.53103638 C-30.95142362 47.77530558 -32.23956194 49.02843541 -33.51977539 50.28955078 C-35.4655303 52.18496991 -37.46338837 54.0100601 -39.47070312 55.83984375 C-46.82922022 62.67335585 -46.82922022 62.67335585 -49.94921875 71.890625 C-50.00757901 74.84930808 -49.77552221 77.70062111 -49.42895508 80.63623047 C-49.10709116 85.41343492 -50.215078 87.97024923 -53.22265625 91.59765625 C-59.34643466 97.03694047 -65.54344557 99.11662898 -73.703125 98.69140625 C-79.71260732 97.82884648 -83.25538129 94.77659979 -87.1796875 90.3359375 C-87.9428125 89.5315625 -88.7059375 88.7271875 -89.4921875 87.8984375 C-92.20264393 82.17636282 -92.00206234 76.54628546 -91.1796875 70.3359375 C-88.68941435 63.68160104 -84.00676937 59.80183181 -77.8046875 56.5859375 C-72.82267695 54.86800283 -68.96883505 54.85679635 -63.88867188 56.21728516 C-59.9709158 56.34261622 -59.58217874 56.30685943 -56.79882812 53.95849609 C-55.62324544 52.82207007 -54.46991475 51.66231998 -53.3359375 50.484375 C-52.7219812 49.87332916 -52.1080249 49.26228333 -51.47546387 48.63272095 C-50.18519714 47.33914025 -48.90479275 46.03565695 -47.63378906 44.72314453 C-45.68253961 42.71387442 -43.69653716 40.74469503 -41.703125 38.77734375 C-40.45348876 37.51523517 -39.20601481 36.25098121 -37.9609375 34.984375 C-37.36526978 34.39457855 -36.76960205 33.8047821 -36.15588379 33.19711304 C-34.3077888 31.3317114 -34.3077888 31.3317114 -32.1796875 28.3359375 C-32.15286748 25.60008135 -32.15286748 25.60008135 -33.1796875 23.3359375 C-33.86277653 16.4714527 -33.32436445 10.99992418 -29.1796875 5.3359375 C-21.48538521 -3.04768485 -10.19140437 -5.81776525 0 0 Z " fill="#030303" transform="translate(334.1796875,343.6640625)"/>
<path d="M0 0 C3.06795339 1.30672089 4.3932547 1.90068304 6.375 4.4375 C6.75170618 6.43414825 6.75170618 6.43414825 6.75417423 8.76228237 C6.76239738 9.6505712 6.77062052 10.53886002 6.77909285 11.45406669 C6.77288103 12.43090056 6.76666922 13.40773442 6.76026917 14.41416931 C6.76550486 15.45113262 6.77074056 16.48809593 6.77613491 17.55648237 C6.79015808 21.04810691 6.7827792 24.53936513 6.77563477 28.03100586 C6.78137386 30.52739288 6.78845521 33.02377713 6.79678345 35.52015686 C6.81192615 40.90419942 6.81803279 46.2881383 6.81625557 51.67219353 C6.81387438 59.4610112 6.82984765 67.24970834 6.85070812 75.03849453 C6.88425226 87.68052077 6.90590209 100.32253624 6.91870117 112.96459961 C6.91947066 113.72147002 6.92024015 114.47834042 6.92103296 115.25814629 C6.92413529 118.32493503 6.92721811 121.39172379 6.930273 124.45851257 C6.93880181 132.8990208 6.94970276 141.33952529 6.96166992 149.7800293 C6.96327195 150.91349994 6.96327195 150.91349994 6.96490634 152.06986897 C6.98298988 164.66285835 7.00897748 177.25582206 7.03980106 189.84878641 C7.05837044 197.61924817 7.06927176 205.38965232 7.07032298 213.16013659 C7.07155542 219.11143932 7.08260853 225.06269703 7.09726334 231.01398277 C7.10155477 233.45855094 7.10239515 235.90312789 7.09958839 238.34769821 C7.09620399 241.67650478 7.10493273 245.0050648 7.11671448 248.33384705 C7.11273338 249.30845019 7.10875229 250.28305333 7.10465056 251.2871899 C7.11026595 252.17808647 7.11588135 253.06898305 7.12166691 253.98687649 C7.12231901 254.7553231 7.12297112 255.52376971 7.12364298 256.31550258 C7.41280945 258.75669363 8.08071295 260.35535756 9.375 262.4375 C11.91285954 263.70642977 13.67530813 263.56504212 16.51716614 263.56880188 C18.15121147 263.57481415 18.15121147 263.57481415 19.81826782 263.58094788 C21.01881805 263.58041916 22.21936829 263.57989044 23.45629883 263.5793457 C25.39078587 263.58467906 27.32527291 263.5900184 29.25975931 263.59558237 C31.3428746 263.60078454 33.42598357 263.60369464 35.50910378 263.60616493 C39.84991567 263.61207104 44.1906454 263.62860793 48.53141785 263.64750671 C50.01710601 263.65384429 51.50279422 263.66016991 52.98848248 263.66648388 C53.73258133 263.66964969 54.47668019 263.6728155 55.2433275 263.67607725 C65.35076166 263.71816304 75.4581579 263.75112694 85.56567383 263.76342773 C92.38108875 263.77180735 99.19630066 263.7942949 106.01161402 263.8327834 C109.61849474 263.8525493 113.22507193 263.86494705 116.83201027 263.85994911 C120.8567954 263.85444025 124.88082445 263.87970172 128.90551758 263.9074707 C130.69723389 263.89756859 130.69723389 263.89756859 132.52514648 263.88746643 C140.565415 263.97877738 140.565415 263.97877738 144.58403015 266.25578308 C147.1390359 269.36823038 147.51551661 271.43277673 147.375 275.4375 C145.71812215 278.00873307 144.97591838 279.00761776 142.375 280.4375 C138.22959273 281.1850503 134.1270885 281.09946012 129.92480469 281.05273438 C128.66081345 281.05828339 127.3968222 281.0638324 126.0945282 281.06954956 C122.63329584 281.08378196 119.17285953 281.06674874 115.7117033 281.04326439 C112.08175175 281.02311884 108.4518321 281.02903717 104.82183838 281.03137207 C98.72207568 281.03131851 92.62262283 281.01157582 86.52294922 280.97949219 C79.4877752 280.94266588 72.45300795 280.93380771 65.41775012 280.9407897 C58.63512645 280.94711522 51.85264118 280.93629842 45.07004547 280.91682434 C42.19148015 280.90868522 39.31298594 280.90593436 36.4344101 280.90751648 C32.40365931 280.90856597 28.37343484 280.88428092 24.34277344 280.85742188 C23.1580394 280.86035248 21.97330536 280.86328308 20.75267029 280.86630249 C11.48316542 280.77129895 4.19899494 279.46795503 -3.01953125 273.42578125 C-8.28650524 266.90293512 -9.20832249 260.84352953 -9.1396637 252.6317749 C-9.14660922 251.56603815 -9.15355475 250.5003014 -9.16071075 249.4022696 C-9.17895824 245.84316009 -9.16872237 242.2847188 -9.15844727 238.72558594 C-9.16550661 236.16934715 -9.17425169 233.61311254 -9.18455505 231.05688477 C-9.20471641 224.84284167 -9.20607904 218.62904425 -9.19792951 212.4149811 C-9.19162285 207.36560754 -9.19277261 202.31628737 -9.19920158 197.26691437 C-9.20010324 196.54755926 -9.20100489 195.82820414 -9.20193387 195.08705039 C-9.2037851 193.62562558 -9.20564766 192.16420077 -9.20752143 190.70277599 C-9.2240846 177.01193861 -9.21539172 163.32120443 -9.19853585 149.63037327 C-9.18382417 137.10136575 -9.19849043 124.57259773 -9.22730602 112.04362103 C-9.25668293 99.17474106 -9.26767833 86.30597169 -9.25812382 73.43705964 C-9.25710126 71.98231397 -9.25610666 70.52756828 -9.2551403 69.07282257 C-9.25466391 68.35707665 -9.25418752 67.64133073 -9.2536967 66.90389554 C-9.25153117 61.8581671 -9.26134335 56.8125433 -9.27591133 51.76683807 C-9.29523251 44.98037411 -9.28838427 38.19442794 -9.26371193 31.40795898 C-9.2586857 28.91339595 -9.26224035 26.41879917 -9.27486038 23.924263 C-9.29069017 20.52741776 -9.27593387 17.13206403 -9.25318909 13.73529053 C-9.26502482 12.74075229 -9.27686054 11.74621406 -9.28905493 10.72153831 C-9.19856436 4.1018518 -9.19856436 4.1018518 -6.31230068 0.75873184 C-3.625 -0.5625 -3.625 -0.5625 0 0 Z " fill="#020202" transform="translate(8.625,201.5625)"/>
<path d="M0 0 C1.06686035 0.02090698 1.06686035 0.02090698 2.15527344 0.04223633 C22.25990646 0.73573322 40.886089 10.99666997 54.5 25.4375 C66.76580327 40.81321559 73.8630379 57.54907316 74.03125 77.29296875 C73.5 80.4375 73.5 80.4375 72.09765625 82.59863281 C68.08381542 85.44000961 64.21188066 85.02896632 59.40625 85.00390625 C58.42257446 85.01010483 57.43889893 85.01630341 56.42541504 85.02268982 C54.34758493 85.02978747 52.26969795 85.02661495 50.19189453 85.01391602 C47.01098146 85.00004788 43.83300843 85.03412521 40.65234375 85.07226562 C38.63281178 85.0732168 36.61327612 85.0713581 34.59375 85.06640625 C33.64262329 85.07966446 32.69149658 85.09292267 31.71154785 85.10658264 C25.13228971 85.01369469 25.13228971 85.01369469 21.90771484 82.07519531 C20.33279141 79.12419413 19.91228507 76.94618955 19.625 73.625 C18.55319356 65.98132774 15.46189245 61.73447782 9.4375 57.0625 C4.31946204 54.23124496 0.49883345 53.20523802 -5.31640625 53.07421875 C-8.72951645 52.07898268 -9.64134565 50.4457018 -11.5 47.4375 C-12.08698425 44.18487976 -12.06084998 40.98183788 -12.03125 37.68359375 C-12.0350769 36.74572525 -12.03890381 35.80785675 -12.04284668 34.84156799 C-12.04556263 32.86385013 -12.03822365 30.88609615 -12.02148438 28.90844727 C-12.00004611 25.88151089 -12.02130903 22.85694149 -12.046875 19.83007812 C-12.04423214 17.90624477 -12.03910802 15.98241288 -12.03125 14.05859375 C-12.03934692 13.15435165 -12.04744385 12.25010956 -12.05578613 11.31846619 C-11.96282407 5.09242094 -11.96282407 5.09242094 -9.68359375 1.8671875 C-6.54466573 -0.18799614 -3.6255734 -0.11848559 0 0 Z " fill="#040303" transform="translate(164.5,129.5625)"/>
<path d="M0 0 C11.22 0 22.44 0 34 0 C34 39.93 34 79.86 34 121 C22.78 121 11.56 121 0 121 C0 81.07 0 41.14 0 0 Z " fill="#BAEB6A" transform="translate(384,144)"/>
<path d="M0 0 C62.04 0 124.08 0 188 0 C188 6.27 188 12.54 188 19 C186.56815369 19.00364563 185.13630737 19.00729126 183.66107178 19.01104736 C170.18219833 19.0479522 156.70352869 19.10543763 143.22483444 19.18390274 C136.2949052 19.22371543 129.36508988 19.25609647 122.43505859 19.27099609 C115.7500037 19.28538987 109.06535275 19.32047514 102.38043976 19.36830902 C99.82714146 19.3831723 97.27379278 19.39104383 94.72045135 19.39188385 C91.15016322 19.39424029 87.58086114 19.42121503 84.01074219 19.45410156 C82.41931145 19.44655602 82.41931145 19.44655602 80.79573059 19.43885803 C75.22737907 19.43287515 75.22737907 19.43287515 70.37432861 21.84661865 C68.85109304 24.04036187 68.85109304 24.04036187 68 27 C61.4 27 54.8 27 48 27 C47.67 27.66 47.34 28.32 47 29 C46.731875 27.88625 46.46375 26.7725 46.1875 25.625 C45.34190981 21.78159049 45.34190981 21.78159049 42 20 C40.00406804 19.67478946 40.00406804 19.67478946 37.80395508 19.68115234 C36.96331009 19.66128265 36.1226651 19.64141296 35.25654602 19.62094116 C34.35333115 19.60938995 33.45011627 19.59783875 32.51953125 19.5859375 C31.59154221 19.56657135 30.66355316 19.5472052 29.70744324 19.5272522 C26.74255575 19.46745756 23.77762943 19.42107145 20.8125 19.375 C18.80271741 19.33682012 16.79295119 19.29776838 14.78320312 19.2578125 C9.85555372 19.16011437 4.92807927 19.08054495 0 19 C0 12.73 0 6.46 0 0 Z " fill="#908190" transform="translate(258,280)"/>
<path d="M0 0 C11.22 0 22.44 0 34 0 C34 31.68 34 63.36 34 96 C22.78 96 11.56 96 0 96 C0 64.32 0 32.64 0 0 Z " fill="#FBE358" transform="translate(335,169)"/>
<path d="M0 0 C11.55 0 23.1 0 35 0 C35 23.43 35 46.86 35 71 C23.45 71 11.9 71 0 71 C0 47.57 0 24.14 0 0 Z " fill="#FDA2CD" transform="translate(285,194)"/>
<path d="M0 0 C1.86328949 -0.01702469 1.86328949 -0.01702469 3.76422119 -0.03439331 C5.14328067 -0.03174988 6.52233956 -0.02877863 7.90139771 -0.0255127 C9.35184382 -0.03285106 10.80228409 -0.04143661 12.25271606 -0.05117798 C16.19494871 -0.07342929 20.13697257 -0.07632282 24.0792594 -0.07443047 C27.36953218 -0.07431091 30.65976048 -0.08286899 33.95002091 -0.09120798 C41.7128146 -0.11045568 49.47550075 -0.11332118 57.23831177 -0.10656738 C65.24721652 -0.09992765 73.25566058 -0.12278478 81.26447189 -0.15988111 C88.13931526 -0.19056982 95.01401039 -0.20193899 101.8889209 -0.1980443 C105.99551453 -0.19597564 110.10174985 -0.20147337 114.20827866 -0.22593689 C118.07115359 -0.24818771 121.93327959 -0.24634094 125.79615784 -0.22600937 C127.21311651 -0.22259609 128.63012542 -0.22770231 130.04701614 -0.24199295 C142.09453782 -0.35510851 142.09453782 -0.35510851 145.4006958 2.77270508 C147.05422974 5.39440918 147.05422974 5.39440918 147.61672974 7.95690918 C146.8838967 11.13251899 145.54020887 12.34713225 143.05422974 14.39440918 C140.37423163 15.73440823 138.30683526 15.53264999 135.30464172 15.54830933 C133.46865669 15.56121002 133.46865669 15.56121002 131.59558105 15.57437134 C130.23178143 15.57880668 128.86798135 15.58310503 127.50418091 15.58728027 C126.07359111 15.59518044 124.6430033 15.60344933 123.2124176 15.61206055 C118.50736395 15.63828959 113.80230135 15.65358857 109.09719849 15.66784668 C107.47833055 15.67320591 105.85946268 15.67858341 104.24059486 15.68397903 C97.50737753 15.70560863 90.7741626 15.72434598 84.0409193 15.73560143 C74.38676752 15.75184495 64.73301795 15.78503122 55.07901782 15.84200227 C48.29339278 15.88068299 41.5078754 15.90023185 34.72214299 15.90552199 C30.66803071 15.90917793 26.61434731 15.92122423 22.56035423 15.95362473 C18.74596819 15.98367314 14.93227124 15.99002925 11.11779213 15.97824097 C9.71855223 15.97801996 8.31928065 15.98634786 6.92015076 16.00389481 C-4.97278537 16.14491803 -4.97278537 16.14491803 -8.31690979 13.08450317 C-9.94577026 10.39440918 -9.94577026 10.39440918 -9.94577026 6.76940918 C-8.18350045 0.82174856 -6.05760475 0.02087253 0 0 Z " fill="#020202" transform="translate(117.94577026367188,340.6055908203125)"/>
<path d="M0 0 C0.88175903 -0.00990463 1.76351807 -0.01980927 2.67199707 -0.03001404 C3.63158829 -0.02551239 4.5911795 -0.02101074 5.57984924 -0.01637268 C6.59652679 -0.02323593 7.61320435 -0.03009918 8.66069031 -0.03717041 C12.02394039 -0.05548295 15.38672598 -0.05159443 18.75001526 -0.0459137 C21.08644768 -0.05047338 23.42287875 -0.05577831 25.75930786 -0.0617981 C30.6577143 -0.070738 35.55595777 -0.06829601 40.45436096 -0.05836487 C46.7338238 -0.04687482 53.01272435 -0.06708333 59.2921133 -0.09628201 C64.11767148 -0.114622 68.94309438 -0.11435588 73.76867867 -0.10864449 C76.08394726 -0.108491 78.39922486 -0.11455782 80.71446037 -0.12693596 C83.95119951 -0.1418019 87.18689299 -0.13120034 90.42359924 -0.11402893 C91.38116623 -0.1236969 92.33873322 -0.13336487 93.32531738 -0.14332581 C97.54660424 -0.09639645 99.96030021 0.03313307 103.66519165 2.20028687 C105.56642151 4.38768005 105.56642151 4.38768005 106.12892151 7.88768005 C105.56642151 11.38768005 105.56642151 11.38768005 104.16957092 13.5730896 C100.11419379 16.39999173 96.18562973 15.95330903 91.35353088 15.92112732 C89.79684441 15.93405067 89.79684441 15.93405067 88.20870972 15.94723511 C84.77561052 15.9699525 81.34332372 15.96314563 77.91017151 15.9540863 C75.52650204 15.95931908 73.14283464 15.96559429 70.75917053 15.97286987 C65.76236734 15.98328463 60.76584875 15.97869659 55.76905823 15.96409607 C49.3593406 15.94690202 42.95051883 15.97040667 36.54090118 16.00558567 C31.61842384 16.02752366 26.69616206 16.02612692 21.77365112 16.01782036 C19.41010556 16.01699897 17.04654447 16.02389803 14.68304443 16.03859138 C11.38123646 16.05597111 8.08105405 16.04154824 4.77931213 16.01878357 C3.79944839 16.03047577 2.81958466 16.04216797 1.81002808 16.05421448 C-4.77893345 15.96157731 -4.77893345 15.96157731 -8.07188416 13.07479858 C-9.94290903 9.38258552 -9.59650106 7.31254372 -8.43357849 3.38768005 C-5.66739906 0.77441016 -3.77243139 0.01199623 0 0 Z " fill="#050505" transform="translate(117.43357849121094,426.61231994628906)"/>
<path d="M0 0 C7.59 0 15.18 0 23 0 C23.515625 1.794375 24.03125 3.58875 24.5625 5.4375 C28.23965136 16.39154038 35.19826761 23.19102986 45.125 28.75 C48.01418511 30.00616744 51.01121889 31.00373963 54 32 C54 39.59 54 47.18 54 55 C36.57481058 53.25748106 23.06770938 44.75195559 11.91796875 31.53125 C4.84534764 22.03945348 0 11.84206422 0 0 Z " fill="#B7E76A" transform="translate(69,244)"/>
<path d="M0 0 C7.59 0 15.18 0 23 0 C19.40791877 17.96040613 12.49363969 32.83173508 -2.59765625 43.90625 C-12.18812409 50.27291782 -20.47205364 52.90400975 -32 55 C-32 47.41 -32 39.82 -32 32 C-29.89625 31.195625 -27.7925 30.39125 -25.625 29.5625 C-15.73046541 25.4633192 -8.4412134 19.5060105 -4.03515625 9.5546875 C-3.69355469 8.71164063 -3.35195312 7.86859375 -3 7 C-2.01 4.69 -1.02 2.38 0 0 Z " fill="#87B7D1" transform="translate(170,244)"/>
<path d="M0 0 C11.22 0 22.44 0 34 0 C34 39.93 34 79.86 34 121 C30.04 121 26.08 121 22 121 C22 81.4 22 41.8 22 1 C14.74 1 7.48 1 0 1 C0 0.67 0 0.34 0 0 Z " fill="#A0E32E" transform="translate(384,144)"/>
<path d="M0 0 C17.52265803 2.19033225 31.86981668 10.34576945 43 24 C49.49645731 32.95620769 54 42.80672936 54 54 C46.41 54 38.82 54 31 54 C30.195625 51.525 30.195625 51.525 29.375 49 C25.46123619 38.30237891 18.31346998 30.78746544 8.08984375 25.859375 C5.44465935 24.77163562 2.71333001 23.90444334 0 23 C0 15.41 0 7.82 0 0 Z " fill="#FBA1CB" transform="translate(168,145)"/>
<path d="M0 0 C0 7.59 0 15.18 0 23 C-2.4440625 23.7734375 -2.4440625 23.7734375 -4.9375 24.5625 C-14.23079573 27.9549113 -22.5317209 34.45251156 -27.21875 43.30078125 C-28.85421224 46.86959349 -30.04393537 50.17574147 -31 54 C-38.59 54 -46.18 54 -54 54 C-52.27699956 36.7699956 -44.47921411 23.05052688 -31 12 C-21.85658301 5.7789342 -11.30441812 0 0 0 Z " fill="#F9E158" transform="translate(123,175)"/>
<path d="M0 0 C0.72407043 -0.00686325 1.44814087 -0.0137265 2.19415283 -0.02079773 C4.58349312 -0.03907281 6.9721772 -0.03522735 9.36157227 -0.02954102 C11.02539788 -0.03410263 12.68922161 -0.03940814 14.3530426 -0.04542542 C17.83911801 -0.05435798 21.32496436 -0.05193198 24.81103516 -0.04199219 C29.2745596 -0.0305045 33.73729268 -0.05070963 38.20071316 -0.07990932 C41.63659168 -0.0982718 45.0722806 -0.09797877 48.50819588 -0.0922718 C50.1536069 -0.09211858 51.79903076 -0.09816374 53.44439507 -0.11056328 C55.74728635 -0.12547239 58.04871637 -0.11479851 60.3515625 -0.09765625 C62.3153611 -0.097407 62.3153611 -0.097407 64.3188324 -0.09715271 C68.31124667 0.48765931 69.98050041 1.49773811 72.74047852 4.40405273 C73.36547852 7.90405273 73.36547852 7.90405273 72.74047852 11.40405273 C69.98455 14.30208761 68.30629793 15.31877783 64.32556152 15.91871643 C63.01937866 15.92491501 61.7131958 15.93111359 60.36743164 15.9375 C59.64321518 15.94611557 58.91899872 15.95473114 58.1728363 15.96360779 C55.78876588 15.98623433 53.40587401 15.97953624 51.02172852 15.97045898 C49.35933077 15.97569578 47.696936 15.98197247 46.0345459 15.98924255 C42.55438227 15.99964035 39.07462769 15.99509401 35.59448242 15.98046875 C31.13865469 15.96327421 26.68411566 15.98678653 22.2284317 16.02195835 C18.79680873 16.04393652 15.36549401 16.04249009 11.93382263 16.03419304 C10.2911996 16.03337388 8.64855386 16.0402306 7.0059967 16.05496407 C4.70770407 16.07242096 2.41172564 16.05786261 0.11352539 16.03515625 C-1.8457489 16.03371361 -1.8457489 16.03371361 -3.84460449 16.03224182 C-8.13618554 15.2427865 -9.64558072 13.84196582 -12.25952148 10.40405273 C-12.32342791 6.69747996 -12.26701335 4.4571486 -9.64683533 1.71836853 C-6.33951656 -0.10244833 -3.76778488 0.01555887 0 0 Z " fill="#020202" transform="translate(120.259521484375,383.595947265625)"/>
<path d="M0 0 C3.56206722 -0.14567407 7.12336551 -0.23419196 10.6875 -0.3125 C12.19860352 -0.3753418 12.19860352 -0.3753418 13.74023438 -0.43945312 C15.20493164 -0.46362305 15.20493164 -0.46362305 16.69921875 -0.48828125 C17.59471436 -0.51446533 18.49020996 -0.54064941 19.4128418 -0.56762695 C23.33784622 0.29352576 24.67768055 1.73926549 27 5 C27.66754456 8.31124376 27.58324649 11.52827758 27.48828125 14.89453125 C27.48120651 15.84188644 27.47413177 16.78924164 27.46684265 17.76530457 C27.43892334 20.78185021 27.37618915 23.7965184 27.3125 26.8125 C27.28741396 28.86130126 27.26460133 30.9101317 27.24414062 32.95898438 C27.19336125 37.97395586 27.09550579 42.98488466 27 48 C19.41 48 11.82 48 4 48 C3.96261719 45.12152344 3.92523438 42.24304688 3.88671875 39.27734375 C3.84044067 36.47396464 3.78922988 33.67071574 3.73754883 30.86743164 C3.70439841 28.92675765 3.676336 26.98598954 3.65356445 25.04516602 C3.61983616 22.24715253 3.56751181 19.4499939 3.51171875 16.65234375 C3.50532883 15.7916478 3.4989389 14.93095184 3.49235535 14.04417419 C3.3620246 8.64292443 2.44729356 4.82906006 0 0 Z " fill="#6BAAC9" transform="translate(470,46)"/>
<path d="M0 0 C11.22 0 22.44 0 34 0 C34 31.68 34 63.36 34 96 C30.7 96 27.4 96 24 96 C24 64.65 24 33.3 24 1 C16.08 1 8.16 1 0 1 C0 0.67 0 0.34 0 0 Z " fill="#F3D20C" transform="translate(335,169)"/>
<path d="M0 0 C11.55 0 23.1 0 35 0 C35 23.43 35 46.86 35 71 C33.02 71 31.04 71 29 71 C29 47.9 29 24.8 29 1 C19.76 1 10.52 1 1 1 C1 24.1 1 47.2 1 71 C0.67 71 0.34 71 0 71 C0 47.57 0 24.14 0 0 Z " fill="#E272A5" transform="translate(285,194)"/>
<path d="M0 0 C1.13244141 -0.01998047 2.26488281 -0.03996094 3.43164062 -0.06054688 C11.67625193 -0.05568853 11.67625193 -0.05568853 15.8125 2.24609375 C17.5625 4.4375 17.5625 4.4375 18.125 7.9375 C17.46882207 12.02038487 16.77921042 12.95043202 13.5625 15.4375 C9.10233211 16.26676028 4.59112553 16.04013902 0.0625 16 C-1.17371094 16.02384766 -2.40992187 16.04769531 -3.68359375 16.07226562 C-4.87082031 16.07033203 -6.05804688 16.06839844 -7.28125 16.06640625 C-8.36599609 16.06713135 -9.45074219 16.06785645 -10.56835938 16.06860352 C-13.4375 15.4375 -13.4375 15.4375 -15.82226562 13.12475586 C-17.4375 10.4375 -17.4375 10.4375 -17.4375 6.8125 C-14.94929825 -1.5851809 -7.34558169 -0.04583176 0 0 Z " fill="#060606" transform="translate(70.4375,426.5625)"/>
<path d="M0 0 C1.18722656 -0.00515625 2.37445313 -0.0103125 3.59765625 -0.015625 C4.83386719 -0.00015625 6.07007813 0.0153125 7.34375 0.03125 C9.19806641 0.00804687 9.19806641 0.00804687 11.08984375 -0.015625 C12.87068359 -0.00789063 12.87068359 -0.00789063 14.6875 0 C15.77224609 0.00451172 16.85699219 0.00902344 17.97460938 0.01367188 C21.5030407 0.65018263 22.68432059 1.71760292 24.84375 4.53125 C25.57637602 8.3571859 25.24172553 9.92941172 23.08984375 13.18359375 C18.85442085 17.1928057 12.79315388 16.24966835 7.34375 16.15625 C5.65185547 16.18525391 5.65185547 16.18525391 3.92578125 16.21484375 C-5.25746684 16.160505 -5.25746684 16.160505 -8.40234375 13.18359375 C-10.55422553 9.92941172 -10.88887602 8.3571859 -10.15625 4.53125 C-7.0978511 0.54628292 -4.93277683 0.0205166 0 0 Z " fill="#040404" transform="translate(63.15625,340.46875)"/>
<path d="M0 0 C1.13244141 -0.01998047 2.26488281 -0.03996094 3.43164062 -0.06054688 C11.69421425 -0.05567795 11.69421425 -0.05567795 15.80859375 2.28125 C17.5625 4.4375 17.5625 4.4375 18.1875 7.375 C17.55267043 10.48566488 16.78054236 12.19795813 14.47070312 14.38793945 C9.99922537 16.84736664 4.45770628 16.14372949 -0.5 16.0625 C-2.27600586 16.09150391 -2.27600586 16.09150391 -4.08789062 16.12109375 C-5.22548828 16.11464844 -6.36308594 16.10820312 -7.53515625 16.1015625 C-8.57164307 16.09592285 -9.60812988 16.0902832 -10.67602539 16.08447266 C-13.4375 15.4375 -13.4375 15.4375 -15.80639648 13.12255859 C-17.4375 10.4375 -17.4375 10.4375 -17.4375 6.8125 C-14.94929825 -1.5851809 -7.34558169 -0.04583176 0 0 Z " fill="#030303" transform="translate(70.4375,383.5625)"/>
<path d="M0 0 C4.62 0 9.24 0 14 0 C14 6.27 14 12.54 14 19 C9.38 19 4.76 19 0 19 C0 12.73 0 6.46 0 0 Z " fill="#796C78" transform="translate(432,280)"/>
<path d="M0 0 C1.9453125 0.37890625 1.9453125 0.37890625 4.5078125 1.94140625 C5.9453125 4.37890625 5.9453125 4.37890625 5.8828125 7.94140625 C4.9453125 11.37890625 4.9453125 11.37890625 3.8203125 13.31640625 C0.76078791 15.05013685 -1.62286275 14.80035841 -5.0546875 14.37890625 C-7.4921875 12.75390625 -7.4921875 12.75390625 -9.0546875 10.37890625 C-9.53757613 7.06766993 -9.35087739 5.08235725 -8.0546875 2.00390625 C-5.46231192 -0.10239891 -3.28423543 -0.18784372 0 0 Z " fill="#040506" transform="translate(112.0546875,62.62109375)"/>
<path d="M0 0 C2.5625 2.125 2.5625 2.125 4 5 C3.936318 8.18409977 3.51040601 10.14932332 1.875 12.875 C-1.16832808 14.70099685 -3.54249555 14.42460581 -7 14 C-9.4375 12.4375 -9.4375 12.4375 -11 10 C-11.42213381 6.56262469 -11.60856522 4.17909511 -10 1.0625 C-6.74435838 -0.66705961 -3.53165237 -0.75171717 0 0 Z " fill="#040506" transform="translate(80,63)"/>
<path d="M0 0 C2 1 2 1 3 3 C3.51981506 6.56444611 3.63102777 9.73794446 2 13 C-1.26417672 14.63208836 -4.43875614 14.65289471 -8 14 C-10 12.4375 -10 12.4375 -11 10 C-11.35773097 6.60155579 -11.58904125 4.14126742 -10 1.0625 C-6.75629493 -0.66071832 -3.5838959 -0.52265149 0 0 Z " fill="#030404" transform="translate(46,63)"/>
<path d="M0 0 C3.4375 0.8125 3.4375 0.8125 5.4375 3.8125 C5.24308481 6.92314304 4.92794181 9.07683729 3.1875 11.6875 C0.69043971 13.29275305 -0.65095767 13.38060582 -3.5625 12.8125 C-5.9375 10.6875 -5.9375 10.6875 -7.5625 7.8125 C-7.5 4.625 -7.5 4.625 -6.5625 1.8125 C-3.5625 -0.1875 -3.5625 -0.1875 0 0 Z " fill="#B3E267" transform="translate(440.5625,356.1875)"/>
<path d="M0 0 C3.4375 0.8125 3.4375 0.8125 5.4375 3.8125 C5.24308481 6.92314304 4.92794181 9.07683729 3.1875 11.6875 C0.69043971 13.29275305 -0.65095767 13.38060582 -3.5625 12.8125 C-5.9375 10.6875 -5.9375 10.6875 -7.5625 7.8125 C-7.5 4.625 -7.5 4.625 -6.5625 1.8125 C-3.5625 -0.1875 -3.5625 -0.1875 0 0 Z " fill="#B3E267" transform="translate(323.5625,356.1875)"/>
<path d="M0 0 C2 2 2 2 2.3125 5.4375 C2 9 2 9 0.875 10.9375 C-1.88980433 12.50422245 -3.88188517 12.38976435 -7 12 C-8.875 10.9375 -8.875 10.9375 -10 9 C-10.4375 5.5 -10.4375 5.5 -10 2 C-7.00303875 -1.6885677 -4.34072074 -1.22672543 0 0 Z " fill="#B3E267" transform="translate(385,415)"/>
<path d="M0 0 C2 2 2 2 2.3125 5.4375 C2 9 2 9 0.875 10.9375 C-1.88980433 12.50422245 -3.88188517 12.38976435 -7 12 C-8.875 10.9375 -8.875 10.9375 -10 9 C-10.4375 5.5 -10.4375 5.5 -10 2 C-7.00303875 -1.6885677 -4.34072074 -1.22672543 0 0 Z " fill="#B3E267" transform="translate(268,415)"/>
</svg>
